<svg width="18" height="18" viewBox="0 0 18 18" fill="none" xmlns="http://www.w3.org/2000/svg">
<path d="M7.30731 4.21989C7.94938 2.61921 8.27042 1.81886 8.792 1.70794C8.92914 1.67877 9.07089 1.67877 9.20803 1.70794C9.72961 1.81886 10.0506 2.61921 10.6927 4.21989C11.0579 5.13017 11.2404 5.58531 11.582 5.89488C11.6779 5.98171 11.7819 6.05904 11.8926 6.12579C12.2875 6.36377 12.7803 6.40791 13.7661 6.4962C15.4349 6.64565 16.2693 6.72037 16.5241 7.19612C16.5768 7.29465 16.6127 7.40133 16.6302 7.51172C16.7147 8.04475 16.1013 8.60281 14.8745 9.71893L14.5338 10.0289C13.9603 10.5507 13.6735 10.8116 13.5076 11.1372C13.4081 11.3325 13.3414 11.5428 13.3102 11.7598C13.2581 12.1215 13.342 12.5 13.51 13.257L13.57 13.5274C13.8712 14.885 14.0218 15.5637 13.8338 15.8974C13.6649 16.1971 13.3539 16.3889 13.0103 16.4053C12.6278 16.4236 12.0888 15.9844 11.0108 15.106C10.3006 14.5273 9.94548 14.2379 9.55128 14.1249C9.19103 14.0216 8.809 14.0216 8.44875 14.1249C8.05454 14.2379 7.69944 14.5273 6.98923 15.106C5.91125 15.9844 5.37227 16.4236 4.98975 16.4053C4.64615 16.3889 4.3351 16.1971 4.16623 15.8974C3.97824 15.5637 4.12884 14.885 4.43004 13.5274L4.49004 13.257C4.658 12.5 4.74197 12.1215 4.68986 11.7598C4.6586 11.5428 4.59188 11.3325 4.49238 11.1372C4.32651 10.8116 4.03974 10.5507 3.46619 10.0289L3.12552 9.71893C1.89873 8.60281 1.28534 8.04475 1.36981 7.51172C1.3873 7.40133 1.42318 7.29465 1.47595 7.19612C1.73075 6.72037 2.56514 6.64565 4.2339 6.4962C5.21968 6.40791 5.71257 6.36377 6.10741 6.12579C6.21816 6.05904 6.32217 5.98171 6.41799 5.89488C6.7596 5.58531 6.94217 5.13017 7.30731 4.21989Z" fill="white" stroke="white" stroke-width="2"/>
</svg>
